<svg width="162" height="18" viewBox="0 0 162 18" fill="none" xmlns="http://www.w3.org/2000/svg">
<path d="M1.9 8.52V7.52H0.9V8.52H1.9ZM7.9 8.52H8.9V7.52H7.9V8.52ZM7.9 11.92V12.92H8.9V11.92H7.9ZM1.9 11.92H0.9V12.92H1.9V11.92ZM1.9 9.52H7.9V7.52H1.9V9.52ZM6.9 8.52V11.92H8.9V8.52H6.9ZM7.9 10.92H1.9V12.92H7.9V10.92ZM2.9 11.92V8.52H0.9V11.92H2.9ZM30.6691 13.56L31.6022 13.2005L31.3555 12.56H30.6691V13.56ZM25.3491 13.56V12.56H24.6627L24.4159 13.2005L25.3491 13.56ZM24.4091 16V17H25.0955L25.3422 16.3595L24.4091 16ZM19.6091 16L18.6928 15.5995L18.0805 17H19.6091V16ZM25.7291 2V0.999999H25.0748L24.8128 1.59945L25.7291 2ZM30.3691 2L31.2853 1.59945L31.0233 0.999999H30.3691V2ZM36.4891 16V17H38.0176L37.4053 15.5995L36.4891 16ZM31.6091 16L30.6759 16.3595L30.9227 17H31.6091V16ZM29.3691 10.16V11.16H30.8275L30.3019 9.7996L29.3691 10.16ZM28.0091 6.64L28.9419 6.2796L28.0091 3.8653L27.0763 6.2796L28.0091 6.64ZM26.6491 10.16L25.7163 9.7996L25.1907 11.16H26.6491V10.16ZM30.6691 12.56H25.3491V14.56H30.6691V12.56ZM24.4159 13.2005L23.4759 15.6405L25.3422 16.3595L26.2822 13.9195L24.4159 13.2005ZM24.4091 15H19.6091V17H24.4091V15ZM20.5253 16.4005L26.6453 2.40054L24.8128 1.59945L18.6928 15.5995L20.5253 16.4005ZM25.7291 3H30.3691V0.999999H25.7291V3ZM29.4528 2.40054L35.5728 16.4005L37.4053 15.5995L31.2853 1.59945L29.4528 2.40054ZM36.4891 15H31.6091V17H36.4891V15ZM32.5422 15.6405L31.6022 13.2005L29.7359 13.9195L30.6759 16.3595L32.5422 15.6405ZM30.3019 9.7996L28.9419 6.2796L27.0763 7.0004L28.4363 10.5204L30.3019 9.7996ZM27.0763 6.2796L25.7163 9.7996L27.5819 10.5204L28.9419 7.0004L27.0763 6.2796ZM26.6491 11.16H29.3691V9.16H26.6491V11.16ZM45.8423 12.48L46.6708 11.9199L46.3733 11.48H45.8423V12.48ZM44.5623 12.48V11.48H43.5623V12.48H44.5623ZM44.5623 16V17H45.5623V16H44.5623ZM39.8423 16H38.8423V17H39.8423V16ZM39.8423 2V0.999999H38.8423V2H39.8423ZM49.9623 2.64L49.5562 3.55381L49.9623 2.64ZM52.1823 4.48L51.3439 5.02499V5.02499L52.1823 4.48ZM52.2823 9.9L51.4276 9.38102L52.2823 9.9ZM50.3223 11.68L49.8641 10.7912L48.8601 11.3088L49.4956 12.2426L50.3223 11.68ZM53.2623 16V17H55.1525L54.0891 15.4374L53.2623 16ZM48.2223 16L47.3939 16.5601L47.6913 17H48.2223V16ZM47.7223 6.08L47.0466 6.81715L47.0551 6.82496L47.0638 6.83258L47.7223 6.08ZM44.5623 5.64V4.64H43.5623V5.64H44.5623ZM44.5623 8.92H43.5623V9.92H44.5623V8.92ZM47.7223 8.5L48.3808 9.25258L48.3895 9.24496L48.3981 9.23715L47.7223 8.5ZM45.8423 11.48H44.5623V13.48H45.8423V11.48ZM43.5623 12.48V16H45.5623V12.48H43.5623ZM44.5623 15H39.8423V17H44.5623V15ZM40.8423 16V2H38.8423V16H40.8423ZM39.8423 3H46.5823V0.999999H39.8423V3ZM46.5823 3C47.7673 3 48.75 3.19551 49.5562 3.55381L50.3685 1.72619C49.2547 1.23116 47.9841 0.999999 46.5823 0.999999V3ZM49.5562 3.55381C50.358 3.91017 50.9398 4.40336 51.3439 5.02499L53.0208 3.93501C52.3848 2.95664 51.4867 2.22316 50.3685 1.72619L49.5562 3.55381ZM51.3439 5.02499C51.7463 5.64407 51.9623 6.38321 51.9623 7.28H53.9623C53.9623 6.04346 53.6584 4.91593 53.0208 3.93501L51.3439 5.02499ZM51.9623 7.28C51.9623 8.12401 51.7728 8.8124 51.4276 9.38102L53.1371 10.419C53.6986 9.49427 53.9623 8.43599 53.9623 7.28H51.9623ZM51.4276 9.38102C51.0791 9.95488 50.5704 10.427 49.8641 10.7912L50.7806 12.5688C51.7809 12.053 52.5789 11.3385 53.1371 10.419L51.4276 9.38102ZM49.4956 12.2426L52.4356 16.5626L54.0891 15.4374L51.1491 11.1174L49.4956 12.2426ZM53.2623 15H48.2223V17H53.2623V15ZM49.0508 15.4399L46.6708 11.9199L45.0139 13.0401L47.3939 16.5601L49.0508 15.4399ZM49.2023 7.28C49.2023 6.54154 48.9654 5.83895 48.3808 5.32742L47.0638 6.83258C47.1192 6.88105 47.2023 6.97846 47.2023 7.28H49.2023ZM48.3981 5.34284C47.8227 4.81545 47.056 4.64 46.2823 4.64V6.64C46.7887 6.64 46.982 6.75789 47.0466 6.81715L48.3981 5.34284ZM46.2823 4.64H44.5623V6.64H46.2823V4.64ZM43.5623 5.64V8.92H45.5623V5.64H43.5623ZM44.5623 9.92H46.2823V7.92H44.5623V9.92ZM46.2823 9.92C47.0461 9.92 47.8057 9.75581 48.3808 9.25258L47.0638 7.74742C46.999 7.80419 46.7986 7.92 46.2823 7.92V9.92ZM48.3981 9.23715C48.9653 8.71721 49.2023 8.02007 49.2023 7.28H47.2023C47.2023 7.57993 47.1194 7.69612 47.0466 7.76285L48.3981 9.23715ZM57.3447 2V0.999999H56.3447V2H57.3447ZM62.0647 2H63.0647V0.999999H62.0647V2ZM62.0647 16V17H63.0647V16H62.0647ZM57.3447 16H56.3447V17H57.3447V16ZM57.3447 3H62.0647V0.999999H57.3447V3ZM61.0647 2V16H63.0647V2H61.0647ZM62.0647 15H57.3447V17H62.0647V15ZM58.3447 16V2H56.3447V16H58.3447ZM68.7569 15.94L68.5199 16.9115L68.5268 16.9132L68.5337 16.9148L68.7569 15.94ZM66.0569 14.88L65.1422 14.4758L64.7913 15.27L65.5283 15.7289L66.0569 14.88ZM67.5769 11.44L68.0786 10.575L67.1132 10.0151L66.6622 11.0358L67.5769 11.44ZM69.8169 12.38L69.5381 13.3403L69.5452 13.3424L69.5524 13.3444L69.8169 12.38ZM73.5969 12.54L73.9908 13.4591L74.009 13.4514L74.0268 13.4429L73.5969 12.54ZM73.4569 11.3L73.0796 12.2262L73.0912 12.2308L73.4569 11.3ZM71.6569 10.82L71.4515 11.7987L71.4548 11.7994L71.6569 10.82ZM68.9569 10.1L68.6096 11.0377L68.6172 11.0406L68.625 11.0433L68.9569 10.1ZM67.0769 8.82L66.3294 9.48441L66.3369 9.49267L67.0769 8.82ZM67.0169 4L67.8418 4.56523V4.56523L67.0169 4ZM69.2169 2.3L68.8305 1.37765L68.826 1.37955L69.2169 2.3ZM75.6169 2L75.391 2.97415L75.3991 2.97605L75.4073 2.9778L75.6169 2ZM78.0769 2.9L79.0004 3.28346L79.3399 2.46584L78.5695 2.02974L78.0769 2.9ZM76.6569 6.32L76.2062 7.21269L77.1675 7.698L77.5804 6.70346L76.6569 6.32ZM71.4769 6.8L71.0996 7.72609L71.1145 7.73216L71.1296 7.73775L71.4769 6.8ZM73.2569 7.24L73.0668 8.2218L73.0726 8.22287L73.2569 7.24ZM75.9569 7.94L75.6151 8.87979L75.6227 8.88255L75.6304 8.88519L75.9569 7.94ZM77.8569 9.2L77.1169 9.87272L77.1253 9.88173L77.8569 9.2ZM77.9369 14L78.7569 14.5724L78.7618 14.5652L77.9369 14ZM75.7169 15.7L76.1078 16.6205L76.1138 16.6179L75.7169 15.7ZM72.1569 15.32C71.0703 15.32 70.0119 15.2014 68.98 14.9652L68.5337 16.9148C69.7152 17.1852 70.9234 17.32 72.1569 17.32V15.32ZM68.9938 14.9685C67.9698 14.7187 67.1766 14.3992 66.5854 14.0311L65.5283 15.7289C66.3505 16.2408 67.3573 16.6279 68.5199 16.9115L68.9938 14.9685ZM66.9716 15.2842L68.4916 11.8442L66.6622 11.0358L65.1422 14.4758L66.9716 15.2842ZM67.0752 12.305C67.8196 12.7368 68.6424 13.0803 69.5381 13.3403L70.0957 11.4197C69.338 11.1997 68.6675 10.9165 68.0786 10.575L67.0752 12.305ZM69.5524 13.3444C70.4545 13.5917 71.337 13.72 72.1969 13.72V11.72C71.5368 11.72 70.8326 11.6216 70.0813 11.4156L69.5524 13.3444ZM72.1969 13.72C72.8658 13.72 73.51 13.6652 73.9908 13.4591L73.203 11.6209C73.1237 11.6548 72.8346 11.72 72.1969 11.72V13.72ZM74.0268 13.4429C74.274 13.3251 74.5286 13.1484 74.7218 12.8815C74.9232 12.6035 75.0169 12.2836 75.0169 11.96H73.0169C73.0169 11.9302 73.0212 11.8883 73.0364 11.8397C73.0518 11.7905 73.0749 11.7458 73.1019 11.7085C73.1552 11.635 73.1997 11.6215 73.1669 11.6371L74.0268 13.4429ZM75.0169 11.96C75.0169 11.5807 74.8888 11.222 74.6394 10.928C74.4057 10.6526 74.1061 10.4806 73.8225 10.3692L73.0912 12.2308C73.181 12.266 73.1614 12.2774 73.1144 12.222C73.0887 12.1917 73.0615 12.149 73.0421 12.0955C73.0227 12.0423 73.0169 11.9946 73.0169 11.96H75.0169ZM73.8342 10.3739C73.3827 10.19 72.705 10.0152 71.859 9.84063L71.4548 11.7994C72.2887 11.9715 72.811 12.1167 73.0796 12.2261L73.8342 10.3739ZM71.8623 9.84132C70.8081 9.62007 69.9537 9.39064 69.2888 9.15669L68.625 11.0433C69.4001 11.316 70.3457 11.5666 71.4515 11.7987L71.8623 9.84132ZM69.3042 9.16225C68.7394 8.95307 68.246 8.61947 67.8168 8.14733L66.3369 9.49267C66.9744 10.1939 67.7343 10.7136 68.6096 11.0377L69.3042 9.16225ZM67.8243 8.15564C67.493 7.78292 67.2769 7.23488 67.2769 6.4H65.2769C65.2769 7.59179 65.5941 8.65708 66.3295 9.48436L67.8243 8.15564ZM67.2769 6.4C67.2769 5.71998 67.4635 5.11733 67.8418 4.56523L66.1919 3.43477C65.5836 4.32267 65.2769 5.32002 65.2769 6.4H67.2769ZM67.8418 4.56523C68.2064 4.0331 68.7726 3.5751 69.6077 3.22044L68.826 1.37955C67.7145 1.85157 66.814 2.5269 66.1919 3.43477L67.8418 4.56523ZM69.6033 3.22234C70.4361 2.87344 71.4906 2.68 72.7969 2.68V0.679999C71.3032 0.679999 69.971 0.899891 68.8305 1.37766L69.6033 3.22234ZM72.7969 2.68C73.6821 2.68 74.5463 2.77828 75.391 2.97415L75.8428 1.02585C74.8475 0.795055 73.8316 0.679999 72.7969 0.679999V2.68ZM75.4073 2.9778C76.2584 3.16016 76.9799 3.42814 77.5843 3.77026L78.5695 2.02974C77.7605 1.57185 76.8421 1.23984 75.8264 1.0222L75.4073 2.9778ZM77.1533 2.51653L75.7333 5.93653L77.5804 6.70346L79.0004 3.28346L77.1533 2.51653ZM77.1076 5.42731C75.6292 4.68094 74.1748 4.28 72.7569 4.28V6.28C73.7923 6.28 74.9379 6.5724 76.2062 7.21269L77.1076 5.42731ZM72.7569 4.28C72.1016 4.28 71.4646 4.35407 70.9566 4.59972C70.689 4.7291 70.424 4.92215 70.2273 5.20741C70.0252 5.50061 69.9369 5.83133 69.9369 6.16H71.9369C71.9369 6.19534 71.9244 6.26939 71.8739 6.34259C71.8289 6.40785 71.7914 6.41756 71.8272 6.40028C71.8661 6.38148 71.9555 6.34874 72.1197 6.32226C72.2812 6.29624 72.4912 6.28 72.7569 6.28V4.28ZM69.9369 6.16C69.9369 6.53523 70.0648 6.88718 70.3076 7.17487C70.5348 7.44412 70.8253 7.61435 71.0996 7.72609L71.8542 5.87391C71.7684 5.83898 71.789 5.82921 71.8362 5.88513C71.862 5.91575 71.8899 5.95942 71.91 6.01474C71.9302 6.07001 71.9369 6.12089 71.9369 6.16H69.9369ZM71.1296 7.73775C71.5719 7.90159 72.2344 8.06065 73.0669 8.22178L73.4469 6.25822C72.6261 6.09935 72.1018 5.96508 71.8242 5.86225L71.1296 7.73775ZM73.0726 8.22287C74.1047 8.4164 74.9485 8.63737 75.6151 8.87979L76.2986 7.00021C75.4986 6.70929 74.5424 6.4636 73.4412 6.25713L73.0726 8.22287ZM75.6304 8.88519C76.2016 9.08254 76.6938 9.40723 77.1169 9.87267L78.5968 8.52733C77.9533 7.81944 77.1788 7.30412 76.2834 6.99481L75.6304 8.88519ZM77.1253 9.88173C77.4573 10.2381 77.6769 10.7702 77.6769 11.6H79.6769C79.6769 10.4031 79.3498 9.33528 78.5885 8.51827L77.1253 9.88173ZM77.6769 11.6C77.6769 12.28 77.4902 12.8827 77.1119 13.4348L78.7618 14.5652C79.3702 13.6773 79.6769 12.68 79.6769 11.6H77.6769ZM77.1169 13.4276C76.7532 13.9485 76.1782 14.411 75.32 14.7821L76.1138 16.6179C77.2289 16.1357 78.1339 15.4648 78.7568 14.5724L77.1169 13.4276ZM75.326 14.7796C74.5093 15.1264 73.4638 15.32 72.1569 15.32V17.32C73.6499 17.32 74.9777 17.1003 76.1077 16.6204L75.326 14.7796ZM85.5261 5.66H86.5261V4.66H85.5261V5.66ZM81.4261 5.66H80.4261V6.66H81.4261V5.66ZM81.4261 2V0.999999H80.4261V2H81.4261ZM94.3461 2H95.3461V0.999999H94.3461V2ZM94.3461 5.66V6.66H95.3461V5.66H94.3461ZM90.2461 5.66V4.66H89.2461V5.66H90.2461ZM90.2461 16V17H91.2461V16H90.2461ZM85.5261 16H84.5261V17H85.5261V16ZM85.5261 4.66H81.4261V6.66H85.5261V4.66ZM82.4261 5.66V2H80.4261V5.66H82.4261ZM81.4261 3H94.3461V0.999999H81.4261V3ZM93.3461 2V5.66H95.3461V2H93.3461ZM94.3461 4.66H90.2461V6.66H94.3461V4.66ZM89.2461 5.66V16H91.2461V5.66H89.2461ZM90.2461 15H85.5261V17H90.2461V15ZM86.5261 16V5.66H84.5261V16H86.5261ZM101.257 15.38L101.72 14.4936L101.257 15.38ZM98.4367 12.78L97.5819 13.299L97.5847 13.3035L98.4367 12.78ZM98.4367 5.24L99.2887 5.76353L99.2915 5.75898L98.4367 5.24ZM109.377 2.62L109.84 1.73359L109.377 2.62ZM112.197 5.24L111.342 5.75898L111.345 5.76352L112.197 5.24ZM112.197 12.78L113.049 13.3035L113.052 13.299L112.197 12.78ZM109.377 15.38L109.84 16.2664L109.377 15.38ZM106.897 12.08L107.411 12.9375L107.418 12.9333L106.897 12.08ZM108.037 10.86L108.917 11.3341L108.922 11.3248L108.037 10.86ZM108.037 7.16L107.151 7.62486L107.156 7.6341L108.037 7.16ZM106.897 5.94L106.365 6.78664L106.379 6.79544L106.393 6.80378L106.897 5.94ZM103.717 5.94L104.231 6.79752L104.238 6.79328L103.717 5.94ZM102.597 7.16L103.477 7.63412L103.482 7.62483L102.597 7.16ZM102.597 10.86L101.711 11.3249L101.716 11.3341L102.597 10.86ZM103.717 12.08L103.185 12.9266L103.199 12.9354L103.213 12.9438L103.717 12.08ZM105.317 15.32C103.953 15.32 102.761 15.0375 101.72 14.4936L100.794 16.2664C102.152 16.9758 103.667 17.32 105.317 17.32V15.32ZM101.72 14.4936C100.673 13.9468 99.8701 13.2026 99.2887 12.2565L97.5847 13.3035C98.3633 14.5707 99.4408 15.5598 100.794 16.2664L101.72 14.4936ZM99.2915 12.261C98.713 11.3082 98.4167 10.23 98.4167 9H96.4167C96.4167 10.57 96.8004 12.0118 97.5819 13.299L99.2915 12.261ZM98.4167 9C98.4167 7.76988 98.713 6.70045 99.2887 5.76352L97.5847 4.71647C96.8004 5.99289 96.4167 7.43012 96.4167 9H98.4167ZM99.2915 5.75898C99.8736 4.80025 100.676 4.05158 101.72 3.50641L100.794 1.73359C99.4378 2.44176 98.3598 3.43975 97.5819 4.72102L99.2915 5.75898ZM101.72 3.50641C102.761 2.96247 103.953 2.68 105.317 2.68V0.679999C103.667 0.679999 102.152 1.02419 100.794 1.73359L101.72 3.50641ZM105.317 2.68C106.681 2.68 107.872 2.96247 108.914 3.50641L109.84 1.73359C108.481 1.02419 106.966 0.679999 105.317 0.679999V2.68ZM108.914 3.50641C109.958 4.05158 110.76 4.80025 111.342 5.75898L113.052 4.72102C112.274 3.43975 111.196 2.44176 109.84 1.73359L108.914 3.50641ZM111.345 5.76352C111.92 6.70045 112.217 7.76988 112.217 9H114.217C114.217 7.43012 113.833 5.99289 113.049 4.71647L111.345 5.76352ZM112.217 9C112.217 10.23 111.92 11.3082 111.342 12.261L113.052 13.299C113.833 12.0118 114.217 10.57 114.217 9H112.217ZM111.345 12.2565C110.763 13.2026 109.961 13.9468 108.914 14.4936L109.84 16.2664C111.193 15.5598 112.27 14.5707 113.049 13.3035L111.345 12.2565ZM108.914 14.4936C107.872 15.0375 106.681 15.32 105.317 15.32V17.32C106.966 17.32 108.481 16.9758 109.84 16.2664L108.914 14.4936ZM105.317 13.5C106.07 13.5 106.777 13.318 107.411 12.9375L106.382 11.2225C106.083 11.402 105.737 11.5 105.317 11.5V13.5ZM107.418 12.9333C108.057 12.5429 108.558 12.002 108.917 11.3341L107.156 10.3859C106.956 10.758 106.696 11.0304 106.375 11.2267L107.418 12.9333ZM108.922 11.3248C109.289 10.6252 109.457 9.84056 109.457 9H107.457C107.457 9.57277 107.344 10.0281 107.151 10.3952L108.922 11.3248ZM109.457 9C109.457 8.16024 109.29 7.37769 108.917 6.6859L107.156 7.6341C107.344 7.98231 107.457 8.42642 107.457 9H109.457ZM108.922 6.69517C108.562 6.01019 108.056 5.4587 107.401 5.07622L106.393 6.80378C106.697 6.9813 106.951 7.24314 107.151 7.62483L108.922 6.69517ZM107.429 5.09336C106.792 4.6933 106.079 4.5 105.317 4.5V6.5C105.728 6.5 106.068 6.60003 106.365 6.78664L107.429 5.09336ZM105.317 4.5C104.554 4.5 103.839 4.69321 103.195 5.08672L104.238 6.79328C104.554 6.60012 104.906 6.5 105.317 6.5V4.5ZM103.202 5.08251C102.562 5.46677 102.067 6.01728 101.711 6.69517L103.482 7.62483C103.686 7.23605 103.938 6.97323 104.231 6.79749L103.202 5.08251ZM101.716 6.6859C101.344 7.37769 101.177 8.16024 101.177 9H103.177C103.177 8.42642 103.29 7.98231 103.477 7.6341L101.716 6.6859ZM101.177 9C101.177 9.84056 101.344 10.6252 101.711 11.3248L103.482 10.3952C103.289 10.0281 103.177 9.57277 103.177 9H101.177ZM101.716 11.3341C102.072 11.9951 102.561 12.5348 103.185 12.9266L104.249 11.2334C103.939 11.0386 103.681 10.7649 103.477 10.3859L101.716 11.3341ZM103.213 12.9438C103.854 13.318 104.563 13.5 105.317 13.5V11.5C104.897 11.5 104.539 11.402 104.221 11.2162L103.213 12.9438ZM120.375 5.66H121.375V4.66H120.375V5.66ZM116.275 5.66H115.275V6.66H116.275V5.66ZM116.275 2V0.999999H115.275V2H116.275ZM129.195 2H130.195V0.999999H129.195V2ZM129.195 5.66V6.66H130.195V5.66H129.195ZM125.095 5.66V4.66H124.095V5.66H125.095ZM125.095 16V17H126.095V16H125.095ZM120.375 16H119.375V17H120.375V16ZM120.375 4.66H116.275V6.66H120.375V4.66ZM117.275 5.66V2H115.275V5.66H117.275ZM116.275 3H129.195V0.999999H116.275V3ZM128.195 2V5.66H130.195V2H128.195ZM129.195 4.66H125.095V6.66H129.195V4.66ZM124.095 5.66V16H126.095V5.66H124.095ZM125.095 15H120.375V17H125.095V15ZM121.375 16V5.66H119.375V16H121.375ZM144.66 12.44H145.66V11.44H144.66V12.44ZM144.66 16V17H145.66V16H144.66ZM133.02 16H132.02V17H133.02V16ZM133.02 2V0.999999H132.02V2H133.02ZM144.4 2H145.4V0.999999H144.4V2ZM144.4 5.56V6.56H145.4V5.56H144.4ZM137.66 5.56V4.56H136.66V5.56H137.66ZM137.66 7.2H136.66V8.2H137.66V7.2ZM143.58 7.2H144.58V6.2H143.58V7.2ZM143.58 10.6V11.6H144.58V10.6H143.58ZM137.66 10.6V9.6H136.66V10.6H137.66ZM137.66 12.44H136.66V13.44H137.66V12.44ZM143.66 12.44V16H145.66V12.44H143.66ZM144.66 15H133.02V17H144.66V15ZM134.02 16V2H132.02V16H134.02ZM133.02 3H144.4V0.999999H133.02V3ZM143.4 2V5.56H145.4V2H143.4ZM144.4 4.56H137.66V6.56H144.4V4.56ZM136.66 5.56V7.2H138.66V5.56H136.66ZM137.66 8.2H143.58V6.2H137.66V8.2ZM142.58 7.2V10.6H144.58V7.2H142.58ZM143.58 9.6H137.66V11.6H143.58V9.6ZM136.66 10.6V12.44H138.66V10.6H136.66ZM137.66 13.44H144.66V11.44H137.66V13.44ZM149.077 2V0.999999H148.077V2H149.077ZM153.798 2H154.798V0.999999H153.798V2ZM153.798 12.34H152.798V13.34H153.798V12.34ZM160.118 12.34H161.118V11.34H160.118V12.34ZM160.118 16V17H161.118V16H160.118ZM149.077 16H148.077V17H149.077V16ZM149.077 3H153.798V0.999999H149.077V3ZM152.798 2V12.34H154.798V2H152.798ZM153.798 13.34H160.118V11.34H153.798V13.34ZM159.118 12.34V16H161.118V12.34H159.118ZM160.118 15H149.077V17H160.118V15ZM150.077 16V2H148.077V16H150.077Z" fill="white"/>
</svg>
