<svg width="474" height="522" viewBox="0 0 474 522" fill="none" xmlns="http://www.w3.org/2000/svg">
<g filter="url(#filter0_d)">
<path d="M194.854 291.69L194.854 291.691C194.018 295.919 190.311 298.967 186.001 298.972C186.001 298.972 186.001 298.972 186.001 298.972L186.001 298.472C185.445 298.473 184.89 298.419 184.345 298.31L194.854 291.69ZM194.854 291.69C200.345 263.479 219.817 240.004 246.526 229.393C249.62 228.268 251.857 225.549 252.365 222.296C252.874 219.041 251.569 215.767 248.961 213.753C246.355 211.741 242.861 211.306 239.842 212.617C207.426 225.48 183.792 253.964 177.13 288.196C176.169 293.089 179.355 297.836 184.247 298.8L194.854 291.69Z" fill="white" stroke="#E88D67"/>
<mask id="path-2-outside-1" maskUnits="userSpaceOnUse" x="4" y="-1.52588e-05" width="466" height="515" fill="black">
<rect fill="white" x="4" y="-1.52588e-05" width="466" height="515"/>
<path d="M319.88 166.666C327.675 170.501 336.884 170.112 344.328 165.634C352.24 161.307 358.384 154.344 361.694 145.956C398.248 145.848 433.676 133.298 462.148 110.372C465.663 107.445 467.823 103.203 468.121 98.6385C468.443 93.9739 466.85 89.3796 463.71 85.9153C413.604 31.8463 343.249 1.07944 269.534 1.00007C259.072 0.99162 248.62 1.60997 238.233 2.8518C230.91 3.77793 225.012 9.30758 223.616 16.5563L222.259 23.2891L217.292 16.6587C213.046 11.1435 205.9 8.72317 199.176 10.5233C171.258 18.1796 144.815 30.449 120.943 46.8241C114.719 51.1477 112.091 59.0577 114.491 66.2459L117.64 75.7094L109.107 70.5894C102.583 66.6708 94.2624 67.489 88.6269 72.6033C69.2769 90.7126 52.7748 111.642 39.6796 134.683C36.2895 140.779 36.8882 148.314 41.1986 153.798L55.5004 171.667H34.3548C26.982 171.594 20.4162 176.318 18.1415 183.332C9.40437 209.856 4.96784 237.607 5.00018 265.533C5.00084 288.024 7.86839 310.422 13.5335 332.187C15.5006 339.689 22.2898 344.914 30.0455 344.893C32.1838 344.891 34.3035 344.497 36.3004 343.733C68.9149 331.778 97.6347 311.123 119.347 284.008C127.154 285.572 135.258 284.588 142.464 281.201C142.694 283.001 142.984 284.793 143.317 286.585C142.125 293.728 141.529 300.958 141.534 308.2C141.548 313.046 141.815 317.889 142.336 322.707L147.507 353.341C148.27 357.824 145.384 362.118 140.945 363.104L97.0749 372.832C89.995 374.415 83.9194 378.927 80.3581 385.248C76.7725 391.674 76.0869 399.321 78.4722 406.282C84.9234 425.124 97.9879 449.478 123.614 458.506C146.543 466.579 174.302 460.426 206.259 440.236C213.756 435.529 218.315 427.304 218.334 418.451V352.829C218.363 345.043 221.564 337.604 227.2 332.23C231.933 327.499 238.434 324.97 245.12 325.258C251.476 325.598 257.486 328.261 262.007 332.742C263.253 334.019 264.376 335.41 265.361 336.898C265.454 337.092 265.56 337.28 265.676 337.461C268.192 341.48 269.528 346.125 269.534 350.867V457.021C269.563 467.792 273.834 478.117 281.42 485.762L296.78 501.122C304.421 508.709 314.745 512.977 325.512 513C337.696 513.017 349.143 507.166 356.265 497.28C363.387 487.394 365.312 474.683 361.438 463.131L357.836 452.234C356.284 447.556 356.441 442.48 358.28 437.907L366.66 416.957C370.445 407.488 370.747 396.984 367.513 387.313L357.094 356.072L409.147 343.844C417.658 341.847 423.283 333.742 422.178 325.071L416.648 281.405C415.978 275.967 412.706 271.193 407.876 268.605C407.144 264.418 405.98 260.317 404.403 256.369C388.087 216.522 353.902 186.729 312.2 176.01V163.133C314.76 164.26 317.38 165.386 319.88 166.666ZM278.067 171.667C231.689 171.61 188.474 195.17 163.396 234.182C167.836 219.677 175.146 206.212 184.891 194.587C211.504 162.138 254.345 147.789 295.134 157.664V172.844C289.475 172.098 283.775 171.705 278.067 171.667ZM30.0711 327.895C24.7616 307.533 22.0718 286.576 22.0668 265.533C22.0289 239.441 26.1776 213.511 34.3548 188.733H73.2668C76.5467 188.731 79.5352 186.85 80.9545 183.893C82.3738 180.936 81.9728 177.427 79.9228 174.867L54.4935 143.123C66.7007 121.584 82.1473 102.051 100.292 85.207L128.623 102.188C131.684 104.022 135.562 103.758 138.346 101.526C141.13 99.2939 142.232 95.5652 141.107 92.1787L130.611 60.8955C152.918 45.5885 177.639 34.1394 203.742 27.0267L220.04 48.7867C222.054 51.4809 225.463 52.7406 228.745 52.0035C232.027 51.2664 234.57 48.67 235.238 45.3734L240.264 19.7734C249.978 18.619 259.752 18.049 269.534 18.0667C338.442 18.1523 404.219 46.8588 451.14 97.3243C424.313 118.647 390.83 129.832 356.574 128.915C306.696 97.0292 243.396 94.8991 191.488 123.36C139.58 151.82 107.337 206.335 107.4 265.533C107.4 267.377 107.503 269.194 107.562 271.012C87.0226 300.622 54.2204 318.261 30.0711 327.895ZM141.619 261.71C140.502 262.64 139.324 263.495 138.095 264.27C134.075 266.874 129.293 268.041 124.527 267.581C124.527 266.907 124.467 266.242 124.467 265.568C124.384 213.121 152.655 164.725 198.379 139.037C244.104 113.349 300.142 114.379 344.891 141.732C342.73 145.627 339.508 148.829 335.599 150.965C333.206 152.465 330.217 152.654 327.654 151.468C320.753 147.941 313.544 145.053 306.116 142.841C268.042 131.85 227.028 138.99 194.908 162.2C162.788 185.411 143.135 222.111 141.619 261.71ZM351.291 392.723C352.185 395.376 352.643 398.157 352.648 400.957C352.646 404.284 352.012 407.579 350.779 410.668L342.4 431.618C339.084 439.935 338.818 449.158 341.649 457.653L345.267 468.584C345.98 470.686 346.34 472.892 346.334 475.112C346.361 480.663 344.135 485.988 340.164 489.866C331.146 497.921 317.412 497.547 308.847 489.013L293.487 473.653C289.096 469.229 286.622 463.255 286.6 457.021V372.644L340.36 360.006L351.291 392.723ZM286.6 355.133V350.867C286.6 347.022 286.078 343.196 285.047 339.492C307.575 334.875 338.227 322.903 351.692 291.961C368.195 294.752 385.156 291.772 399.718 283.522L405.179 327.246L286.6 355.133ZM388.625 262.973C389.459 264.994 390.143 267.073 390.673 269.194C390.587 269.245 390.485 269.262 390.4 269.322C379.063 275.315 366.042 277.329 353.425 275.04C346.225 274.326 339.368 278.265 336.358 284.844C324.667 311.46 295.833 320.59 276.778 323.731C275.928 322.676 275.025 321.665 274.073 320.701C266.566 313.211 256.555 308.758 245.964 308.2C234.612 307.739 223.568 311.96 215.415 319.874C206.41 328.475 201.301 340.376 201.267 352.829V418.451C201.243 421.453 199.684 424.235 197.137 425.824C169.83 443.078 147.02 448.65 129.314 442.412C110.131 435.654 99.8738 416.027 94.6514 400.761C93.8144 398.394 94.0415 395.781 95.2743 393.593C96.4391 391.491 98.4549 389.995 100.804 389.489L144.657 379.769C157.933 376.793 166.583 363.977 164.377 350.551L159.257 320.352C158.839 316.597 158.6 312.057 158.6 308.2C158.565 301.447 159.136 294.704 160.307 288.053C160.307 287.848 160.375 287.609 160.401 287.37C169.665 235.001 212.431 195.062 265.31 189.395C318.189 183.728 368.448 213.697 388.599 262.914L388.625 262.973Z"/>
</mask>
<path d="M319.88 166.666C327.675 170.501 336.884 170.112 344.328 165.634C352.24 161.307 358.384 154.344 361.694 145.956C398.248 145.848 433.676 133.298 462.148 110.372C465.663 107.445 467.823 103.203 468.121 98.6385C468.443 93.9739 466.85 89.3796 463.71 85.9153C413.604 31.8463 343.249 1.07944 269.534 1.00007C259.072 0.99162 248.62 1.60997 238.233 2.8518C230.91 3.77793 225.012 9.30758 223.616 16.5563L222.259 23.2891L217.292 16.6587C213.046 11.1435 205.9 8.72317 199.176 10.5233C171.258 18.1796 144.815 30.449 120.943 46.8241C114.719 51.1477 112.091 59.0577 114.491 66.2459L117.64 75.7094L109.107 70.5894C102.583 66.6708 94.2624 67.489 88.6269 72.6033C69.2769 90.7126 52.7748 111.642 39.6796 134.683C36.2895 140.779 36.8882 148.314 41.1986 153.798L55.5004 171.667H34.3548C26.982 171.594 20.4162 176.318 18.1415 183.332C9.40437 209.856 4.96784 237.607 5.00018 265.533C5.00084 288.024 7.86839 310.422 13.5335 332.187C15.5006 339.689 22.2898 344.914 30.0455 344.893C32.1838 344.891 34.3035 344.497 36.3004 343.733C68.9149 331.778 97.6347 311.123 119.347 284.008C127.154 285.572 135.258 284.588 142.464 281.201C142.694 283.001 142.984 284.793 143.317 286.585C142.125 293.728 141.529 300.958 141.534 308.2C141.548 313.046 141.815 317.889 142.336 322.707L147.507 353.341C148.27 357.824 145.384 362.118 140.945 363.104L97.0749 372.832C89.995 374.415 83.9194 378.927 80.3581 385.248C76.7725 391.674 76.0869 399.321 78.4722 406.282C84.9234 425.124 97.9879 449.478 123.614 458.506C146.543 466.579 174.302 460.426 206.259 440.236C213.756 435.529 218.315 427.304 218.334 418.451V352.829C218.363 345.043 221.564 337.604 227.2 332.23C231.933 327.499 238.434 324.97 245.12 325.258C251.476 325.598 257.486 328.261 262.007 332.742C263.253 334.019 264.376 335.41 265.361 336.898C265.454 337.092 265.56 337.28 265.676 337.461C268.192 341.48 269.528 346.125 269.534 350.867V457.021C269.563 467.792 273.834 478.117 281.42 485.762L296.78 501.122C304.421 508.709 314.745 512.977 325.512 513C337.696 513.017 349.143 507.166 356.265 497.28C363.387 487.394 365.312 474.683 361.438 463.131L357.836 452.234C356.284 447.556 356.441 442.48 358.28 437.907L366.66 416.957C370.445 407.488 370.747 396.984 367.513 387.313L357.094 356.072L409.147 343.844C417.658 341.847 423.283 333.742 422.178 325.071L416.648 281.405C415.978 275.967 412.706 271.193 407.876 268.605C407.144 264.418 405.98 260.317 404.403 256.369C388.087 216.522 353.902 186.729 312.2 176.01V163.133C314.76 164.26 317.38 165.386 319.88 166.666ZM278.067 171.667C231.689 171.61 188.474 195.17 163.396 234.182C167.836 219.677 175.146 206.212 184.891 194.587C211.504 162.138 254.345 147.789 295.134 157.664V172.844C289.475 172.098 283.775 171.705 278.067 171.667ZM30.0711 327.895C24.7616 307.533 22.0718 286.576 22.0668 265.533C22.0289 239.441 26.1776 213.511 34.3548 188.733H73.2668C76.5467 188.731 79.5352 186.85 80.9545 183.893C82.3738 180.936 81.9728 177.427 79.9228 174.867L54.4935 143.123C66.7007 121.584 82.1473 102.051 100.292 85.207L128.623 102.188C131.684 104.022 135.562 103.758 138.346 101.526C141.13 99.2939 142.232 95.5652 141.107 92.1787L130.611 60.8955C152.918 45.5885 177.639 34.1394 203.742 27.0267L220.04 48.7867C222.054 51.4809 225.463 52.7406 228.745 52.0035C232.027 51.2664 234.57 48.67 235.238 45.3734L240.264 19.7734C249.978 18.619 259.752 18.049 269.534 18.0667C338.442 18.1523 404.219 46.8588 451.14 97.3243C424.313 118.647 390.83 129.832 356.574 128.915C306.696 97.0292 243.396 94.8991 191.488 123.36C139.58 151.82 107.337 206.335 107.4 265.533C107.4 267.377 107.503 269.194 107.562 271.012C87.0226 300.622 54.2204 318.261 30.0711 327.895ZM141.619 261.71C140.502 262.64 139.324 263.495 138.095 264.27C134.075 266.874 129.293 268.041 124.527 267.581C124.527 266.907 124.467 266.242 124.467 265.568C124.384 213.121 152.655 164.725 198.379 139.037C244.104 113.349 300.142 114.379 344.891 141.732C342.73 145.627 339.508 148.829 335.599 150.965C333.206 152.465 330.217 152.654 327.654 151.468C320.753 147.941 313.544 145.053 306.116 142.841C268.042 131.85 227.028 138.99 194.908 162.2C162.788 185.411 143.135 222.111 141.619 261.71ZM351.291 392.723C352.185 395.376 352.643 398.157 352.648 400.957C352.646 404.284 352.012 407.579 350.779 410.668L342.4 431.618C339.084 439.935 338.818 449.158 341.649 457.653L345.267 468.584C345.98 470.686 346.34 472.892 346.334 475.112C346.361 480.663 344.135 485.988 340.164 489.866C331.146 497.921 317.412 497.547 308.847 489.013L293.487 473.653C289.096 469.229 286.622 463.255 286.6 457.021V372.644L340.36 360.006L351.291 392.723ZM286.6 355.133V350.867C286.6 347.022 286.078 343.196 285.047 339.492C307.575 334.875 338.227 322.903 351.692 291.961C368.195 294.752 385.156 291.772 399.718 283.522L405.179 327.246L286.6 355.133ZM388.625 262.973C389.459 264.994 390.143 267.073 390.673 269.194C390.587 269.245 390.485 269.262 390.4 269.322C379.063 275.315 366.042 277.329 353.425 275.04C346.225 274.326 339.368 278.265 336.358 284.844C324.667 311.46 295.833 320.59 276.778 323.731C275.928 322.676 275.025 321.665 274.073 320.701C266.566 313.211 256.555 308.758 245.964 308.2C234.612 307.739 223.568 311.96 215.415 319.874C206.41 328.475 201.301 340.376 201.267 352.829V418.451C201.243 421.453 199.684 424.235 197.137 425.824C169.83 443.078 147.02 448.65 129.314 442.412C110.131 435.654 99.8738 416.027 94.6514 400.761C93.8144 398.394 94.0415 395.781 95.2743 393.593C96.4391 391.491 98.4549 389.995 100.804 389.489L144.657 379.769C157.933 376.793 166.583 363.977 164.377 350.551L159.257 320.352C158.839 316.597 158.6 312.057 158.6 308.2C158.565 301.447 159.136 294.704 160.307 288.053C160.307 287.848 160.375 287.609 160.401 287.37C169.665 235.001 212.431 195.062 265.31 189.395C318.189 183.728 368.448 213.697 388.599 262.914L388.625 262.973Z" fill="white"/>
<path d="M319.88 166.666C327.675 170.501 336.884 170.112 344.328 165.634C352.24 161.307 358.384 154.344 361.694 145.956C398.248 145.848 433.676 133.298 462.148 110.372C465.663 107.445 467.823 103.203 468.121 98.6385C468.443 93.9739 466.85 89.3796 463.71 85.9153C413.604 31.8463 343.249 1.07944 269.534 1.00007C259.072 0.99162 248.62 1.60997 238.233 2.8518C230.91 3.77793 225.012 9.30758 223.616 16.5563L222.259 23.2891L217.292 16.6587C213.046 11.1435 205.9 8.72317 199.176 10.5233C171.258 18.1796 144.815 30.449 120.943 46.8241C114.719 51.1477 112.091 59.0577 114.491 66.2459L117.64 75.7094L109.107 70.5894C102.583 66.6708 94.2624 67.489 88.6269 72.6033C69.2769 90.7126 52.7748 111.642 39.6796 134.683C36.2895 140.779 36.8882 148.314 41.1986 153.798L55.5004 171.667H34.3548C26.982 171.594 20.4162 176.318 18.1415 183.332C9.40437 209.856 4.96784 237.607 5.00018 265.533C5.00084 288.024 7.86839 310.422 13.5335 332.187C15.5006 339.689 22.2898 344.914 30.0455 344.893C32.1838 344.891 34.3035 344.497 36.3004 343.733C68.9149 331.778 97.6347 311.123 119.347 284.008C127.154 285.572 135.258 284.588 142.464 281.201C142.694 283.001 142.984 284.793 143.317 286.585C142.125 293.728 141.529 300.958 141.534 308.2C141.548 313.046 141.815 317.889 142.336 322.707L147.507 353.341C148.27 357.824 145.384 362.118 140.945 363.104L97.0749 372.832C89.995 374.415 83.9194 378.927 80.3581 385.248C76.7725 391.674 76.0869 399.321 78.4722 406.282C84.9234 425.124 97.9879 449.478 123.614 458.506C146.543 466.579 174.302 460.426 206.259 440.236C213.756 435.529 218.315 427.304 218.334 418.451V352.829C218.363 345.043 221.564 337.604 227.2 332.23C231.933 327.499 238.434 324.97 245.12 325.258C251.476 325.598 257.486 328.261 262.007 332.742C263.253 334.019 264.376 335.41 265.361 336.898C265.454 337.092 265.56 337.28 265.676 337.461C268.192 341.48 269.528 346.125 269.534 350.867V457.021C269.563 467.792 273.834 478.117 281.42 485.762L296.78 501.122C304.421 508.709 314.745 512.977 325.512 513C337.696 513.017 349.143 507.166 356.265 497.28C363.387 487.394 365.312 474.683 361.438 463.131L357.836 452.234C356.284 447.556 356.441 442.48 358.28 437.907L366.66 416.957C370.445 407.488 370.747 396.984 367.513 387.313L357.094 356.072L409.147 343.844C417.658 341.847 423.283 333.742 422.178 325.071L416.648 281.405C415.978 275.967 412.706 271.193 407.876 268.605C407.144 264.418 405.98 260.317 404.403 256.369C388.087 216.522 353.902 186.729 312.2 176.01V163.133C314.76 164.26 317.38 165.386 319.88 166.666ZM278.067 171.667C231.689 171.61 188.474 195.17 163.396 234.182C167.836 219.677 175.146 206.212 184.891 194.587C211.504 162.138 254.345 147.789 295.134 157.664V172.844C289.475 172.098 283.775 171.705 278.067 171.667ZM30.0711 327.895C24.7616 307.533 22.0718 286.576 22.0668 265.533C22.0289 239.441 26.1776 213.511 34.3548 188.733H73.2668C76.5467 188.731 79.5352 186.85 80.9545 183.893C82.3738 180.936 81.9728 177.427 79.9228 174.867L54.4935 143.123C66.7007 121.584 82.1473 102.051 100.292 85.207L128.623 102.188C131.684 104.022 135.562 103.758 138.346 101.526C141.13 99.2939 142.232 95.5652 141.107 92.1787L130.611 60.8955C152.918 45.5885 177.639 34.1394 203.742 27.0267L220.04 48.7867C222.054 51.4809 225.463 52.7406 228.745 52.0035C232.027 51.2664 234.57 48.67 235.238 45.3734L240.264 19.7734C249.978 18.619 259.752 18.049 269.534 18.0667C338.442 18.1523 404.219 46.8588 451.14 97.3243C424.313 118.647 390.83 129.832 356.574 128.915C306.696 97.0292 243.396 94.8991 191.488 123.36C139.58 151.82 107.337 206.335 107.4 265.533C107.4 267.377 107.503 269.194 107.562 271.012C87.0226 300.622 54.2204 318.261 30.0711 327.895ZM141.619 261.71C140.502 262.64 139.324 263.495 138.095 264.27C134.075 266.874 129.293 268.041 124.527 267.581C124.527 266.907 124.467 266.242 124.467 265.568C124.384 213.121 152.655 164.725 198.379 139.037C244.104 113.349 300.142 114.379 344.891 141.732C342.73 145.627 339.508 148.829 335.599 150.965C333.206 152.465 330.217 152.654 327.654 151.468C320.753 147.941 313.544 145.053 306.116 142.841C268.042 131.85 227.028 138.99 194.908 162.2C162.788 185.411 143.135 222.111 141.619 261.71ZM351.291 392.723C352.185 395.376 352.643 398.157 352.648 400.957C352.646 404.284 352.012 407.579 350.779 410.668L342.4 431.618C339.084 439.935 338.818 449.158 341.649 457.653L345.267 468.584C345.98 470.686 346.34 472.892 346.334 475.112C346.361 480.663 344.135 485.988 340.164 489.866C331.146 497.921 317.412 497.547 308.847 489.013L293.487 473.653C289.096 469.229 286.622 463.255 286.6 457.021V372.644L340.36 360.006L351.291 392.723ZM286.6 355.133V350.867C286.6 347.022 286.078 343.196 285.047 339.492C307.575 334.875 338.227 322.903 351.692 291.961C368.195 294.752 385.156 291.772 399.718 283.522L405.179 327.246L286.6 355.133ZM388.625 262.973C389.459 264.994 390.143 267.073 390.673 269.194C390.587 269.245 390.485 269.262 390.4 269.322C379.063 275.315 366.042 277.329 353.425 275.04C346.225 274.326 339.368 278.265 336.358 284.844C324.667 311.46 295.833 320.59 276.778 323.731C275.928 322.676 275.025 321.665 274.073 320.701C266.566 313.211 256.555 308.758 245.964 308.2C234.612 307.739 223.568 311.96 215.415 319.874C206.41 328.475 201.301 340.376 201.267 352.829V418.451C201.243 421.453 199.684 424.235 197.137 425.824C169.83 443.078 147.02 448.65 129.314 442.412C110.131 435.654 99.8738 416.027 94.6514 400.761C93.8144 398.394 94.0415 395.781 95.2743 393.593C96.4391 391.491 98.4549 389.995 100.804 389.489L144.657 379.769C157.933 376.793 166.583 363.977 164.377 350.551L159.257 320.352C158.839 316.597 158.6 312.057 158.6 308.2C158.565 301.447 159.136 294.704 160.307 288.053C160.307 287.848 160.375 287.609 160.401 287.37C169.665 235.001 212.431 195.062 265.31 189.395C318.189 183.728 368.448 213.697 388.599 262.914L388.625 262.973Z" stroke="#E88D67" stroke-width="2" mask="url(#path-2-outside-1)"/>
<path d="M312.2 402.567H329.267C334.256 402.567 338.3 398.522 338.3 393.533C338.3 388.544 334.256 384.5 329.267 384.5H312.2C307.211 384.5 303.167 388.544 303.167 393.533C303.167 398.522 307.211 402.567 312.2 402.567Z" fill="white" stroke="#E88D67"/>
<path d="M312.2 436.7H320.733C325.722 436.7 329.767 432.656 329.767 427.667C329.767 422.678 325.722 418.633 320.733 418.633H312.2C307.211 418.633 303.167 422.678 303.167 427.667C303.167 432.656 307.211 436.7 312.2 436.7Z" fill="white" stroke="#E88D67"/>
<path d="M312.2 470.833H320.733C325.722 470.833 329.767 466.789 329.767 461.8C329.767 456.811 325.722 452.767 320.733 452.767H312.2C307.211 452.767 303.167 456.811 303.167 461.8C303.167 466.789 307.211 470.833 312.2 470.833Z" fill="white" stroke="#E88D67"/>
<path d="M278.067 223.367C283.056 223.367 287.1 219.322 287.1 214.333C287.1 209.344 283.056 205.3 278.067 205.3C273.078 205.3 269.033 209.344 269.033 214.333C269.033 219.322 273.078 223.367 278.067 223.367Z" fill="white" stroke="#E88D67"/>
</g>
<defs>
<filter id="filter0_d" x="0" y="-1.52588e-05" width="473.162" height="522" filterUnits="userSpaceOnUse" color-interpolation-filters="sRGB">
<feFlood flood-opacity="0" result="BackgroundImageFix"/>
<feColorMatrix in="SourceAlpha" type="matrix" values="0 0 0 0 0 0 0 0 0 0 0 0 0 0 0 0 0 0 127 0"/>
<feOffset dy="4"/>
<feGaussianBlur stdDeviation="2"/>
<feColorMatrix type="matrix" values="0 0 0 0 0.620833 0 0 0 0 0.620833 0 0 0 0 0.620833 0 0 0 0.12 0"/>
<feBlend mode="normal" in2="BackgroundImageFix" result="effect1_dropShadow"/>
<feBlend mode="normal" in="SourceGraphic" in2="effect1_dropShadow" result="shape"/>
</filter>
</defs>
</svg>
