<svg width="70" height="72" viewBox="0 0 70 72" fill="none" xmlns="http://www.w3.org/2000/svg">
<path d="M60.9711 7.06714C60.9734 4.99574 62.3265 3.16812 64.3074 2.56172C62.3756 1.97219 60.2827 2.68055 59.1059 4.32111C57.9284 5.96244 57.9284 8.17107 59.1059 9.81241C60.2827 11.4537 62.3756 12.1613 64.3074 11.5718C62.3265 10.9654 60.9734 9.13778 60.9711 7.06714Z" fill="#FF8F60" fill-opacity="0.15"/>
<path d="M5.10453 63.9809C5.10683 61.9095 6.45991 60.0819 8.44086 59.4755C6.50898 58.886 4.41611 59.5943 3.23935 61.2349C2.06182 62.8762 2.06182 65.0849 3.23935 66.7262C4.41611 68.3675 6.50898 69.0751 8.44086 68.4856C6.45991 67.8792 5.10683 66.0516 5.10453 63.9809Z" fill="#FF8F60" fill-opacity="0.15"/>
<path d="M5.10453 35.5241C5.10683 33.4526 6.45991 31.625 8.44086 31.0186C6.50898 30.4291 4.41611 31.1375 3.23935 32.778C2.06182 34.4194 2.06182 36.628 3.23935 38.2693C4.41611 39.9106 6.50898 40.6182 8.44086 40.0287C6.45991 39.4223 5.10683 37.5947 5.10453 35.5241Z" fill="#FF8F60" fill-opacity="0.15"/>
<path d="M33.0378 35.5241C33.0401 33.4526 34.3931 31.625 36.3741 31.0186C34.4422 30.4291 32.3493 31.1375 31.1726 32.778C29.995 34.4194 29.995 36.628 31.1726 38.2693C32.3493 39.9106 34.4422 40.6182 36.3741 40.0287C34.3931 39.4223 33.0401 37.5947 33.0378 35.5241Z" fill="#FF8F60" fill-opacity="0.15"/>
<path d="M60.9711 35.5241C60.9734 33.4526 62.3265 31.625 64.3074 31.0186C62.3756 30.4291 60.2827 31.1375 59.1059 32.778C57.9284 34.4194 57.9284 36.628 59.1059 38.2693C60.2827 39.9106 62.3756 40.6182 64.3074 40.0287C62.3265 39.4223 60.9734 37.5947 60.9711 35.5241Z" fill="#FF8F60" fill-opacity="0.15"/>
<path d="M69.9988 7.06715C69.9996 3.31762 67.0718 0.221241 63.3284 0.0111879C59.585 -0.198099 56.33 2.55253 55.9122 6.2783C55.4944 10.0041 58.0595 13.4071 61.7561 14.0319V28.5585C58.7939 29.0645 56.4741 31.3843 55.9681 34.3465H41.9651C41.3916 30.9466 38.4478 28.4581 35.0003 28.4581C31.5529 28.4581 28.609 30.9466 28.0348 34.3465H14.0318C13.433 30.7986 10.2638 28.268 6.67147 28.4681C3.07909 28.6682 0.211169 31.5361 0.0110816 35.1285C-0.189006 38.7209 2.3416 41.8901 5.88952 42.4888V57.0155C2.26801 57.628 -0.281 60.9129 0.0264139 64.5728C0.333828 68.2326 3.39417 71.0469 7.06704 71.0469C10.7399 71.0469 13.8003 68.2326 14.1069 64.5728C14.4143 60.9129 11.8661 57.628 8.24457 57.0155V42.4888C11.206 41.9828 13.5258 39.663 14.0318 36.7016H28.0348C28.609 40.1008 31.5529 42.5892 35.0003 42.5892C38.4478 42.5892 41.3916 40.1008 41.9651 36.7016H55.9681C56.5669 40.2487 59.7361 42.7801 63.3284 42.5792C66.9208 42.3792 69.7887 39.5112 69.9888 35.9189C70.1897 32.3265 67.6583 29.1573 64.1112 28.5585V14.0319C67.5073 13.4539 69.9934 10.5123 69.9988 7.06715ZM58.2235 7.06715C58.2235 4.46525 60.3317 2.35704 62.9336 2.35704C65.5348 2.35704 67.6437 4.46525 67.6437 7.06715C67.6437 9.66829 65.5348 11.7773 62.9336 11.7773C60.3333 11.7742 58.2266 9.66676 58.2235 7.06715ZM11.7772 63.981C11.7772 66.5821 9.66818 68.6911 7.06704 68.6911C4.46514 68.6911 2.35694 66.5821 2.35694 63.981C2.35694 61.379 4.46514 59.2708 7.06704 59.2708C9.66665 59.2739 11.7741 61.3806 11.7772 63.981ZM7.06704 40.2342C4.46514 40.2342 2.35694 38.1252 2.35694 35.5241C2.35694 32.9221 4.46514 30.8139 7.06704 30.8139C9.66818 30.8139 11.7772 32.9221 11.7772 35.5241C11.7741 38.1237 9.66665 40.2311 7.06704 40.2342ZM35.0003 40.2342C32.3984 40.2342 30.2902 38.1252 30.2902 35.5241C30.2902 32.9221 32.3984 30.8139 35.0003 30.8139C37.6015 30.8139 39.7104 32.9221 39.7104 35.5241C39.7074 38.1237 37.5999 40.2311 35.0003 40.2342ZM67.6437 35.5241C67.6437 38.1252 65.5348 40.2342 62.9336 40.2342C60.3317 40.2342 58.2235 38.1252 58.2235 35.5241C58.2235 32.9221 60.3317 30.8139 62.9336 30.8139C65.5332 30.817 67.6407 32.9237 67.6437 35.5241Z" fill="#06C99A"/>
<path d="M35.0003 0.00198364C31.0983 0.00198364 27.9352 3.16505 27.9352 7.06715C27.9352 10.9692 31.0983 14.1323 35.0003 14.1323C38.9024 14.1323 42.0655 10.9692 42.0655 7.06715C42.0609 3.16659 38.9001 0.00581675 35.0003 0.00198364ZM35.0003 11.7773C32.3984 11.7773 30.2902 9.66828 30.2902 7.06715C30.2902 4.46524 32.3984 2.35704 35.0003 2.35704C37.6015 2.35704 39.7105 4.46524 39.7105 7.06715C39.7074 9.66675 37.5999 11.7742 35.0003 11.7773Z" fill="#E88D67"/>
<path d="M7.06785 0.00283813C3.16576 0.00283813 0.00268555 3.16591 0.00268555 7.068C0.00268555 10.9701 3.16576 14.1332 7.06785 14.1332C10.9699 14.1332 14.133 10.9701 14.133 7.068C14.1284 3.16744 10.9676 0.00667124 7.06785 0.00283813ZM7.06785 11.7781C4.46594 11.7781 2.35774 9.66914 2.35774 7.068C2.35774 4.46609 4.46594 2.35789 7.06785 2.35789C9.66899 2.35789 11.778 4.46609 11.778 7.068C11.7749 9.66761 9.66745 11.775 7.06785 11.7781Z" fill="#E88D67"/>
<path d="M35.0003 56.9158C31.0983 56.9158 27.9352 60.0789 27.9352 63.981C27.9352 67.8831 31.0983 71.0461 35.0003 71.0461C38.9024 71.0461 42.0655 67.8831 42.0655 63.981C42.0609 60.0804 38.9001 56.9196 35.0003 56.9158ZM35.0003 68.6911C32.3984 68.6911 30.2902 66.5821 30.2902 63.981C30.2902 61.3791 32.3984 59.2709 35.0003 59.2709C37.6015 59.2709 39.7105 61.3791 39.7105 63.981C39.7074 66.5806 37.5999 68.688 35.0003 68.6911Z" fill="#E88D67"/>
<path d="M62.9337 56.9158C59.0316 56.9158 55.8685 60.0789 55.8685 63.981C55.8685 67.8831 59.0316 71.0461 62.9337 71.0461C66.835 71.0461 69.9989 67.8831 69.9989 63.981C69.9943 60.0804 66.8335 56.9196 62.9337 56.9158ZM62.9337 68.6911C60.3318 68.6911 58.2236 66.5821 58.2236 63.981C58.2236 61.3791 60.3318 59.2709 62.9337 59.2709C65.5348 59.2709 67.6438 61.3791 67.6438 63.981C67.6407 66.5806 65.5333 68.688 62.9337 68.6911Z" fill="#E88D67"/>
</svg>
