<svg width="70" height="50" viewBox="0 0 70 50" fill="none" xmlns="http://www.w3.org/2000/svg">
<path d="M15.5233 0C6.96326 0 0 6.96326 0 15.5234C0 23.7813 6.48046 30.5544 14.6229 31.0223C14.7639 32.5444 14.6581 36.6878 10.6878 42.4515C10.3877 42.8862 10.4422 43.4726 10.8149 43.8454C12.4396 45.4701 13.4437 46.4933 14.1465 47.209C15.0662 48.1447 15.486 48.572 16.1002 49.1296C16.3085 49.3186 16.5712 49.4136 16.8351 49.4136C17.0914 49.4136 17.3467 49.3239 17.5529 49.1455C24.4713 43.1255 32.1566 30.6868 31.0447 15.4444C30.3931 6.49545 23.8656 0 15.5233 0ZM16.8457 46.8255C16.5478 46.5318 16.208 46.1858 15.7071 45.6762C15.0983 45.0557 14.263 44.2053 12.9961 42.9343C17.8146 35.5095 16.9045 30.2212 16.5061 29.4628C16.317 29.1028 15.9292 28.8603 15.5233 28.8603C8.17025 28.8603 2.18757 22.8776 2.18757 15.5234C2.18757 8.17025 8.17025 2.18757 15.5233 2.18757C22.6864 2.18757 28.2963 7.82954 28.8635 15.6024C30.1132 32.7463 19.9242 43.8774 16.8457 46.8255Z" fill="white"/>
<path d="M69.8922 15.4444V15.4433C69.2385 6.49545 62.71 0 54.3699 0C45.8097 0 38.8453 6.96326 38.8453 15.5234C38.8453 23.7813 45.3269 30.5544 53.4704 31.0223C53.6114 32.5433 53.5046 36.6845 49.5333 42.4515C49.2331 42.8862 49.2876 43.4726 49.6604 43.8454C51.2786 45.4636 52.2805 46.4848 52.9834 47.1994C53.9073 48.1414 54.3293 48.5709 54.9466 49.1306C55.1549 49.3186 55.4187 49.4136 55.6815 49.4136C55.9379 49.4136 56.1932 49.3239 56.3993 49.1444C63.3177 43.1244 71.0031 30.6858 69.8922 15.4444ZM55.6921 46.8255C55.392 46.5296 55.0492 46.1815 54.5439 45.6666C53.9351 45.047 53.103 44.199 51.8415 42.9343C56.6599 35.5084 55.751 30.2212 55.3536 29.4628C55.1645 29.1039 54.7758 28.8603 54.3699 28.8603C47.0156 28.8603 41.0329 22.8776 41.0329 15.5234C41.0329 8.17025 47.0156 2.18757 54.3699 2.18757C61.5318 2.18757 67.1428 7.82954 67.711 15.6035V15.6024C68.9597 32.7441 58.7706 43.8774 55.6921 46.8255Z" fill="white"/>
</svg>
