<svg width="100" height="100" viewBox="0 0 100 100" fill="none" xmlns="http://www.w3.org/2000/svg">
<path d="M50 0C22.4305 0 0 22.4305 0 50C0 77.5695 22.4305 100 50 100C77.5695 100 100 77.5695 100 50C100 22.4305 77.5695 0 50 0Z" fill="#E88D67"/>
<path d="M50 4.1666C75.2727 4.1666 95.8334 24.7273 95.8334 50C95.8334 60.0602 92.5369 69.3434 87.0207 76.9103C86.5389 76.5969 86.0627 76.3109 85.5795 76.0619C77.2299 71.7754 64.2781 66.6666 50 66.6666C35.7219 66.6666 22.7701 71.7754 14.4186 76.0641C13.9367 76.3121 13.4612 76.5973 12.9795 76.9103C7.46331 69.343 4.16663 60.0602 4.16663 50C4.16663 24.7273 24.7274 4.1666 50 4.1666Z" fill="#F4F4F4"/>
<path d="M50 95.8334C36.2967 95.8334 24.0125 89.7576 15.6064 80.1941C15.8461 80.049 16.0877 79.8912 16.3248 79.7689C24.2654 75.6918 36.5539 70.8334 50 70.8334C63.4461 70.8334 75.7344 75.6918 83.673 79.767C83.9113 79.89 84.1535 80.048 84.3938 80.1939C75.9875 89.7572 63.7033 95.8334 50 95.8334Z" fill="#FF8F60"/>
<path d="M50 62.5C63.8071 62.5 75 51.3071 75 37.5C75 23.6929 63.8071 12.5 50 12.5C36.1929 12.5 25 23.6929 25 37.5C25 51.3071 36.1929 62.5 50 62.5Z" fill="#E88D67"/>
<path d="M68.8926 91.7168C74.8431 88.9977 80.1224 85.0531 84.3937 80.1939C84.1535 80.048 83.9113 79.89 83.673 79.767C75.7344 75.6918 63.4459 70.8334 50 70.8334C49.3562 70.8334 48.7302 70.8947 48.0922 70.9162L68.8926 91.7168Z" fill="url(#paint0_linear)"/>
<path d="M50 58.3334C61.506 58.3334 70.8334 49.006 70.8334 37.5C70.8334 25.994 61.506 16.6666 50 16.6666C38.4941 16.6666 29.1666 25.994 29.1666 37.5C29.1666 49.006 38.4941 58.3334 50 58.3334Z" fill="#E88D67"/>
<path opacity="0.1" d="M61.1687 19.9732C61.9843 22.2018 62.5 24.5758 62.5 27.0834C62.5 38.5707 53.1542 47.9168 41.6666 47.9168C37.55 47.9168 33.7328 46.6787 30.4978 44.6102C33.4189 52.5908 41.0197 58.3334 49.9998 58.3334C61.4873 58.3334 70.8332 48.9873 70.8332 37.5C70.8334 30.1289 66.9611 23.6775 61.1687 19.9732Z" fill="#FF4B00"/>
<defs>
<linearGradient id="paint0_linear" x1="54.8499" y1="64.1641" x2="77.704" y2="87.0224" gradientUnits="userSpaceOnUse">
<stop stop-color="#FF4B00" stop-opacity="0.15"/>
<stop offset="1" stop-color="#FF8F60" stop-opacity="0.15"/>
</linearGradient>
</defs>
</svg>
